<mxfile host="Electron" modified="2023-10-10T16:50:23.133Z" agent="Mozilla/5.0 (Windows NT 10.0; Win64; x64) AppleWebKit/537.36 (KHTML, like Gecko) draw.io/22.0.2 Chrome/114.0.5735.289 Electron/25.8.4 Safari/537.36" etag="UkYpZQ9UlrpQqygMWcmc" version="22.0.2" type="device">
  <diagram name="Page-1" id="-5QLn9L1FUuXq_9v6oXG">
    <mxGraphModel dx="1714" dy="1022" grid="1" gridSize="10" guides="1" tooltips="1" connect="1" arrows="1" fold="1" page="1" pageScale="1" pageWidth="827" pageHeight="1169" math="0" shadow="0">
      <root>
        <mxCell id="0" />
        <mxCell id="1" parent="0" />
        <mxCell id="IjMWrlQXOTTK2lYj-osg-17" style="edgeStyle=orthogonalEdgeStyle;rounded=0;orthogonalLoop=1;jettySize=auto;html=1;exitX=0.5;exitY=0.5;exitDx=0;exitDy=0;exitPerimeter=0;strokeColor=none;endArrow=none;endFill=0;" edge="1" parent="1" source="IjMWrlQXOTTK2lYj-osg-1" target="IjMWrlQXOTTK2lYj-osg-7">
          <mxGeometry relative="1" as="geometry">
            <Array as="points">
              <mxPoint x="140" y="280" />
              <mxPoint x="320" y="280" />
            </Array>
          </mxGeometry>
        </mxCell>
        <mxCell id="IjMWrlQXOTTK2lYj-osg-1" value="Player" style="shape=umlActor;verticalLabelPosition=bottom;verticalAlign=top;html=1;" vertex="1" parent="1">
          <mxGeometry x="80" y="465" width="40" height="80" as="geometry" />
        </mxCell>
        <mxCell id="IjMWrlQXOTTK2lYj-osg-6" value="HeistNet&amp;nbsp; App" style="shape=umlFrame;whiteSpace=wrap;html=1;pointerEvents=0;" vertex="1" parent="1">
          <mxGeometry x="230" y="100" width="420" height="790" as="geometry" />
        </mxCell>
        <mxCell id="IjMWrlQXOTTK2lYj-osg-7" value="View Options" style="ellipse;whiteSpace=wrap;html=1;" vertex="1" parent="1">
          <mxGeometry x="270" y="160" width="100" height="50" as="geometry" />
        </mxCell>
        <mxCell id="IjMWrlQXOTTK2lYj-osg-9" value="Toggle Sound Effects" style="ellipse;whiteSpace=wrap;html=1;" vertex="1" parent="1">
          <mxGeometry x="470" y="120" width="100" height="50" as="geometry" />
        </mxCell>
        <mxCell id="IjMWrlQXOTTK2lYj-osg-10" value="Toggle Music" style="ellipse;whiteSpace=wrap;html=1;" vertex="1" parent="1">
          <mxGeometry x="470" y="200" width="100" height="50" as="geometry" />
        </mxCell>
        <mxCell id="IjMWrlQXOTTK2lYj-osg-65" value="&lt;font style=&quot;font-size: 9px;&quot;&gt;&amp;lt;&amp;lt;include&amp;gt;&amp;gt;&lt;/font&gt;" style="edgeStyle=orthogonalEdgeStyle;rounded=0;orthogonalLoop=1;jettySize=auto;html=1;exitX=0.5;exitY=1;exitDx=0;exitDy=0;endArrow=none;endFill=0;dashed=1;startArrow=open;startFill=0;" edge="1" parent="1" source="IjMWrlQXOTTK2lYj-osg-23" target="IjMWrlQXOTTK2lYj-osg-41">
          <mxGeometry relative="1" as="geometry" />
        </mxCell>
        <mxCell id="IjMWrlQXOTTK2lYj-osg-23" value="View Missions" style="ellipse;whiteSpace=wrap;html=1;" vertex="1" parent="1">
          <mxGeometry x="260" y="335" width="100" height="50" as="geometry" />
        </mxCell>
        <mxCell id="IjMWrlQXOTTK2lYj-osg-25" value="Fetch missions from server" style="ellipse;whiteSpace=wrap;html=1;" vertex="1" parent="1">
          <mxGeometry x="470" y="270" width="100" height="50" as="geometry" />
        </mxCell>
        <mxCell id="IjMWrlQXOTTK2lYj-osg-26" value="Load missions from disk" style="ellipse;whiteSpace=wrap;html=1;" vertex="1" parent="1">
          <mxGeometry x="470" y="330" width="100" height="50" as="geometry" />
        </mxCell>
        <mxCell id="IjMWrlQXOTTK2lYj-osg-27" value="" style="endArrow=none;html=1;rounded=0;exitX=0;exitY=0.5;exitDx=0;exitDy=0;dashed=1;endFill=0;startArrow=open;startFill=0;" edge="1" parent="1" source="IjMWrlQXOTTK2lYj-osg-25" target="IjMWrlQXOTTK2lYj-osg-23">
          <mxGeometry width="50" height="50" relative="1" as="geometry">
            <mxPoint x="400.00000000000006" y="290.85" as="sourcePoint" />
            <mxPoint x="360" y="320" as="targetPoint" />
          </mxGeometry>
        </mxCell>
        <mxCell id="IjMWrlQXOTTK2lYj-osg-29" value="&lt;font style=&quot;font-size: 9px;&quot;&gt;&amp;lt;&amp;lt;include&amp;gt;&amp;gt;&lt;/font&gt;" style="edgeLabel;html=1;align=center;verticalAlign=middle;resizable=0;points=[];fontSize=9;" vertex="1" connectable="0" parent="IjMWrlQXOTTK2lYj-osg-27">
          <mxGeometry x="-0.1854" y="2" relative="1" as="geometry">
            <mxPoint x="-1" as="offset" />
          </mxGeometry>
        </mxCell>
        <mxCell id="IjMWrlQXOTTK2lYj-osg-28" value="" style="endArrow=none;html=1;rounded=0;exitX=0.024;exitY=0.417;exitDx=0;exitDy=0;exitPerimeter=0;dashed=1;endFill=0;startArrow=open;startFill=0;entryX=1;entryY=0.5;entryDx=0;entryDy=0;" edge="1" parent="1" source="IjMWrlQXOTTK2lYj-osg-26" target="IjMWrlQXOTTK2lYj-osg-23">
          <mxGeometry width="50" height="50" relative="1" as="geometry">
            <mxPoint x="400" y="366" as="sourcePoint" />
            <mxPoint x="359.30000000000035" y="330" as="targetPoint" />
          </mxGeometry>
        </mxCell>
        <mxCell id="IjMWrlQXOTTK2lYj-osg-30" value="&lt;font style=&quot;font-size: 9px;&quot;&gt;&amp;lt;&amp;lt;include&amp;gt;&amp;gt;&lt;/font&gt;" style="edgeLabel;html=1;align=center;verticalAlign=middle;resizable=0;points=[];fontSize=9;" vertex="1" connectable="0" parent="IjMWrlQXOTTK2lYj-osg-28">
          <mxGeometry x="0.1139" y="-2" relative="1" as="geometry">
            <mxPoint x="4" y="3" as="offset" />
          </mxGeometry>
        </mxCell>
        <mxCell id="IjMWrlQXOTTK2lYj-osg-31" value="" style="endArrow=open;html=1;rounded=0;entryX=0.976;entryY=0.632;entryDx=0;entryDy=0;exitX=-0.024;exitY=0.442;exitDx=0;exitDy=0;exitPerimeter=0;entryPerimeter=0;endFill=0;dashed=1;" edge="1" parent="1" source="IjMWrlQXOTTK2lYj-osg-10" target="IjMWrlQXOTTK2lYj-osg-7">
          <mxGeometry width="50" height="50" relative="1" as="geometry">
            <mxPoint x="380" y="220" as="sourcePoint" />
            <mxPoint x="430" y="170" as="targetPoint" />
          </mxGeometry>
        </mxCell>
        <mxCell id="IjMWrlQXOTTK2lYj-osg-77" value="&lt;font style=&quot;font-size: 9px;&quot;&gt;&amp;lt;&amp;lt;extends&amp;gt;&amp;gt;&lt;/font&gt;" style="edgeLabel;html=1;align=center;verticalAlign=middle;resizable=0;points=[];" vertex="1" connectable="0" parent="IjMWrlQXOTTK2lYj-osg-31">
          <mxGeometry x="-0.203" relative="1" as="geometry">
            <mxPoint as="offset" />
          </mxGeometry>
        </mxCell>
        <mxCell id="IjMWrlQXOTTK2lYj-osg-32" value="" style="endArrow=open;html=1;rounded=0;exitX=0;exitY=0.5;exitDx=0;exitDy=0;entryX=0.99;entryY=0.366;entryDx=0;entryDy=0;entryPerimeter=0;endFill=0;dashed=1;" edge="1" parent="1" source="IjMWrlQXOTTK2lYj-osg-9" target="IjMWrlQXOTTK2lYj-osg-7">
          <mxGeometry width="50" height="50" relative="1" as="geometry">
            <mxPoint x="380" y="220" as="sourcePoint" />
            <mxPoint x="430" y="170" as="targetPoint" />
          </mxGeometry>
        </mxCell>
        <mxCell id="IjMWrlQXOTTK2lYj-osg-78" value="&lt;font style=&quot;font-size: 9px;&quot;&gt;&amp;lt;&amp;lt;extends&amp;gt;&amp;gt;&lt;/font&gt;" style="edgeLabel;html=1;align=center;verticalAlign=middle;resizable=0;points=[];" vertex="1" connectable="0" parent="IjMWrlQXOTTK2lYj-osg-32">
          <mxGeometry x="-0.1022" y="4" relative="1" as="geometry">
            <mxPoint as="offset" />
          </mxGeometry>
        </mxCell>
        <mxCell id="IjMWrlQXOTTK2lYj-osg-33" value="" style="endArrow=none;html=1;rounded=0;entryX=0;entryY=0.5;entryDx=0;entryDy=0;exitX=1;exitY=0.3333333333333333;exitDx=0;exitDy=0;exitPerimeter=0;" edge="1" parent="1" source="IjMWrlQXOTTK2lYj-osg-1" target="IjMWrlQXOTTK2lYj-osg-7">
          <mxGeometry width="50" height="50" relative="1" as="geometry">
            <mxPoint x="400" y="370" as="sourcePoint" />
            <mxPoint x="450" y="320" as="targetPoint" />
          </mxGeometry>
        </mxCell>
        <mxCell id="IjMWrlQXOTTK2lYj-osg-34" value="" style="endArrow=none;html=1;rounded=0;entryX=0;entryY=0.5;entryDx=0;entryDy=0;" edge="1" parent="1" target="IjMWrlQXOTTK2lYj-osg-23">
          <mxGeometry width="50" height="50" relative="1" as="geometry">
            <mxPoint x="120" y="500" as="sourcePoint" />
            <mxPoint x="450" y="320" as="targetPoint" />
          </mxGeometry>
        </mxCell>
        <mxCell id="IjMWrlQXOTTK2lYj-osg-35" value="Save missions to disk" style="ellipse;whiteSpace=wrap;html=1;fontSize=11;" vertex="1" parent="1">
          <mxGeometry x="470" y="390" width="100" height="50" as="geometry" />
        </mxCell>
        <mxCell id="IjMWrlQXOTTK2lYj-osg-36" value="" style="endArrow=none;html=1;rounded=0;exitX=1;exitY=1;exitDx=0;exitDy=0;entryX=0;entryY=0.5;entryDx=0;entryDy=0;startArrow=open;startFill=0;endFill=0;dashed=1;" edge="1" parent="1" source="IjMWrlQXOTTK2lYj-osg-23" target="IjMWrlQXOTTK2lYj-osg-35">
          <mxGeometry width="50" height="50" relative="1" as="geometry">
            <mxPoint x="390" y="410" as="sourcePoint" />
            <mxPoint x="440" y="360" as="targetPoint" />
          </mxGeometry>
        </mxCell>
        <mxCell id="IjMWrlQXOTTK2lYj-osg-37" value="&amp;lt;&amp;lt;extends&amp;gt;&amp;gt;" style="edgeLabel;html=1;align=center;verticalAlign=middle;resizable=0;points=[];fontSize=9;" vertex="1" connectable="0" parent="IjMWrlQXOTTK2lYj-osg-36">
          <mxGeometry x="-0.1682" y="-2" relative="1" as="geometry">
            <mxPoint as="offset" />
          </mxGeometry>
        </mxCell>
        <mxCell id="IjMWrlQXOTTK2lYj-osg-41" value="Select Mission" style="ellipse;whiteSpace=wrap;html=1;" vertex="1" parent="1">
          <mxGeometry x="260" y="480" width="100" height="50" as="geometry" />
        </mxCell>
        <mxCell id="IjMWrlQXOTTK2lYj-osg-42" value="Create random mission&#39;s map" style="ellipse;whiteSpace=wrap;html=1;" vertex="1" parent="1">
          <mxGeometry x="460" y="470" width="100" height="50" as="geometry" />
        </mxCell>
        <mxCell id="IjMWrlQXOTTK2lYj-osg-44" value="" style="endArrow=open;html=1;rounded=0;exitX=1;exitY=0.5;exitDx=0;exitDy=0;endFill=0;dashed=1;" edge="1" parent="1" source="IjMWrlQXOTTK2lYj-osg-41" target="IjMWrlQXOTTK2lYj-osg-42">
          <mxGeometry width="50" height="50" relative="1" as="geometry">
            <mxPoint x="410" y="440" as="sourcePoint" />
            <mxPoint x="410" y="495" as="targetPoint" />
          </mxGeometry>
        </mxCell>
        <mxCell id="IjMWrlQXOTTK2lYj-osg-45" value="&amp;lt;&amp;lt;include&amp;gt;&amp;gt;" style="edgeLabel;html=1;align=center;verticalAlign=middle;resizable=0;points=[];fontSize=9;" vertex="1" connectable="0" parent="IjMWrlQXOTTK2lYj-osg-44">
          <mxGeometry x="-0.2585" y="-1" relative="1" as="geometry">
            <mxPoint x="13" y="-8" as="offset" />
          </mxGeometry>
        </mxCell>
        <mxCell id="IjMWrlQXOTTK2lYj-osg-47" value="Load map from disk" style="ellipse;whiteSpace=wrap;html=1;" vertex="1" parent="1">
          <mxGeometry x="460" y="540" width="100" height="50" as="geometry" />
        </mxCell>
        <mxCell id="IjMWrlQXOTTK2lYj-osg-48" value="" style="endArrow=open;html=1;rounded=0;endFill=0;dashed=1;" edge="1" parent="1" target="IjMWrlQXOTTK2lYj-osg-47" source="IjMWrlQXOTTK2lYj-osg-41">
          <mxGeometry width="50" height="50" relative="1" as="geometry">
            <mxPoint x="360" y="575" as="sourcePoint" />
            <mxPoint x="410" y="565" as="targetPoint" />
          </mxGeometry>
        </mxCell>
        <mxCell id="IjMWrlQXOTTK2lYj-osg-49" value="&amp;lt;&amp;lt;include&amp;gt;&amp;gt;" style="edgeLabel;html=1;align=center;verticalAlign=middle;resizable=0;points=[];fontSize=9;" vertex="1" connectable="0" parent="IjMWrlQXOTTK2lYj-osg-48">
          <mxGeometry x="-0.2585" y="-1" relative="1" as="geometry">
            <mxPoint x="13" y="-1" as="offset" />
          </mxGeometry>
        </mxCell>
        <mxCell id="IjMWrlQXOTTK2lYj-osg-50" value="" style="endArrow=none;html=1;rounded=0;entryX=0;entryY=0.5;entryDx=0;entryDy=0;" edge="1" parent="1" source="IjMWrlQXOTTK2lYj-osg-1" target="IjMWrlQXOTTK2lYj-osg-41">
          <mxGeometry width="50" height="50" relative="1" as="geometry">
            <mxPoint x="430" y="420" as="sourcePoint" />
            <mxPoint x="480" y="370" as="targetPoint" />
          </mxGeometry>
        </mxCell>
        <mxCell id="IjMWrlQXOTTK2lYj-osg-51" value="Abandon Mission" style="ellipse;whiteSpace=wrap;html=1;fontSize=11;" vertex="1" parent="1">
          <mxGeometry x="260" y="570" width="100" height="50" as="geometry" />
        </mxCell>
        <mxCell id="IjMWrlQXOTTK2lYj-osg-52" value="" style="endArrow=none;html=1;rounded=0;exitX=0.5;exitY=1;exitDx=0;exitDy=0;startArrow=open;startFill=0;endFill=0;dashed=1;" edge="1" parent="1" target="IjMWrlQXOTTK2lYj-osg-51" source="IjMWrlQXOTTK2lYj-osg-41">
          <mxGeometry width="50" height="50" relative="1" as="geometry">
            <mxPoint x="197.5" y="560" as="sourcePoint" />
            <mxPoint x="292.5" y="542" as="targetPoint" />
          </mxGeometry>
        </mxCell>
        <mxCell id="IjMWrlQXOTTK2lYj-osg-53" value="&amp;lt;&amp;lt;include&amp;gt;&amp;gt;" style="edgeLabel;html=1;align=center;verticalAlign=middle;resizable=0;points=[];fontSize=9;" vertex="1" connectable="0" parent="IjMWrlQXOTTK2lYj-osg-52">
          <mxGeometry x="-0.1682" y="-2" relative="1" as="geometry">
            <mxPoint x="11" y="4" as="offset" />
          </mxGeometry>
        </mxCell>
        <mxCell id="IjMWrlQXOTTK2lYj-osg-54" value="View Map" style="ellipse;whiteSpace=wrap;html=1;" vertex="1" parent="1">
          <mxGeometry x="260" y="650" width="100" height="50" as="geometry" />
        </mxCell>
        <mxCell id="IjMWrlQXOTTK2lYj-osg-56" value="Select Node" style="ellipse;whiteSpace=wrap;html=1;fontSize=11;" vertex="1" parent="1">
          <mxGeometry x="260" y="740" width="100" height="50" as="geometry" />
        </mxCell>
        <mxCell id="IjMWrlQXOTTK2lYj-osg-57" value="" style="endArrow=none;html=1;rounded=0;startArrow=open;startFill=0;endFill=0;dashed=1;" edge="1" parent="1" target="IjMWrlQXOTTK2lYj-osg-56" source="IjMWrlQXOTTK2lYj-osg-54">
          <mxGeometry width="50" height="50" relative="1" as="geometry">
            <mxPoint x="370" y="590" as="sourcePoint" />
            <mxPoint x="352.5" y="602" as="targetPoint" />
          </mxGeometry>
        </mxCell>
        <mxCell id="IjMWrlQXOTTK2lYj-osg-58" value="&amp;lt;&amp;lt;extends&amp;gt;&amp;gt;" style="edgeLabel;html=1;align=center;verticalAlign=middle;resizable=0;points=[];fontSize=9;" vertex="1" connectable="0" parent="IjMWrlQXOTTK2lYj-osg-57">
          <mxGeometry x="-0.1682" y="-2" relative="1" as="geometry">
            <mxPoint x="2" y="3" as="offset" />
          </mxGeometry>
        </mxCell>
        <mxCell id="IjMWrlQXOTTK2lYj-osg-59" value="Attack Node" style="ellipse;whiteSpace=wrap;html=1;" vertex="1" parent="1">
          <mxGeometry x="260" y="830" width="100" height="50" as="geometry" />
        </mxCell>
        <mxCell id="IjMWrlQXOTTK2lYj-osg-60" value="" style="endArrow=none;html=1;rounded=0;endFill=0;dashed=1;startArrow=open;startFill=0;" edge="1" parent="1" target="IjMWrlQXOTTK2lYj-osg-59" source="IjMWrlQXOTTK2lYj-osg-56">
          <mxGeometry width="50" height="50" relative="1" as="geometry">
            <mxPoint x="414" y="685" as="sourcePoint" />
            <mxPoint x="464" y="675" as="targetPoint" />
          </mxGeometry>
        </mxCell>
        <mxCell id="IjMWrlQXOTTK2lYj-osg-61" value="&amp;lt;&amp;lt;include&amp;gt;&amp;gt;" style="edgeLabel;html=1;align=center;verticalAlign=middle;resizable=0;points=[];fontSize=9;" vertex="1" connectable="0" parent="IjMWrlQXOTTK2lYj-osg-60">
          <mxGeometry x="-0.2585" y="-1" relative="1" as="geometry">
            <mxPoint x="-3" y="15" as="offset" />
          </mxGeometry>
        </mxCell>
        <mxCell id="IjMWrlQXOTTK2lYj-osg-62" value="" style="endArrow=none;html=1;rounded=0;entryX=0;entryY=0.4;entryDx=0;entryDy=0;entryPerimeter=0;" edge="1" parent="1" source="IjMWrlQXOTTK2lYj-osg-1" target="IjMWrlQXOTTK2lYj-osg-54">
          <mxGeometry width="50" height="50" relative="1" as="geometry">
            <mxPoint x="270" y="620" as="sourcePoint" />
            <mxPoint x="320" y="570" as="targetPoint" />
          </mxGeometry>
        </mxCell>
        <mxCell id="IjMWrlQXOTTK2lYj-osg-64" value="" style="endArrow=none;html=1;rounded=0;" edge="1" parent="1" source="IjMWrlQXOTTK2lYj-osg-1" target="IjMWrlQXOTTK2lYj-osg-51">
          <mxGeometry width="50" height="50" relative="1" as="geometry">
            <mxPoint x="250" y="595" as="sourcePoint" />
            <mxPoint x="300" y="545" as="targetPoint" />
          </mxGeometry>
        </mxCell>
        <mxCell id="IjMWrlQXOTTK2lYj-osg-67" value="&lt;font style=&quot;font-size: 9px;&quot;&gt;&amp;lt;&amp;lt;include&amp;gt;&amp;gt;&lt;/font&gt;" style="endArrow=open;html=1;rounded=0;entryX=0;entryY=1;entryDx=0;entryDy=0;endFill=0;dashed=1;" edge="1" parent="1" source="IjMWrlQXOTTK2lYj-osg-54" target="IjMWrlQXOTTK2lYj-osg-47">
          <mxGeometry width="50" height="50" relative="1" as="geometry">
            <mxPoint x="440" y="560" as="sourcePoint" />
            <mxPoint x="490" y="510" as="targetPoint" />
          </mxGeometry>
        </mxCell>
        <mxCell id="IjMWrlQXOTTK2lYj-osg-76" value="" style="endArrow=none;html=1;rounded=0;entryX=0;entryY=0.5;entryDx=0;entryDy=0;" edge="1" parent="1" source="IjMWrlQXOTTK2lYj-osg-1" target="IjMWrlQXOTTK2lYj-osg-59">
          <mxGeometry width="50" height="50" relative="1" as="geometry">
            <mxPoint x="290" y="660" as="sourcePoint" />
            <mxPoint x="340" y="610" as="targetPoint" />
          </mxGeometry>
        </mxCell>
        <mxCell id="IjMWrlQXOTTK2lYj-osg-79" value="&lt;font style=&quot;font-size: 10px;&quot;&gt;View Performance Stats&lt;/font&gt;" style="ellipse;whiteSpace=wrap;html=1;" vertex="1" parent="1">
          <mxGeometry x="260" y="250" width="100" height="50" as="geometry" />
        </mxCell>
        <mxCell id="IjMWrlQXOTTK2lYj-osg-80" value="" style="endArrow=none;html=1;rounded=0;entryX=0.103;entryY=0.757;entryDx=0;entryDy=0;entryPerimeter=0;" edge="1" parent="1" target="IjMWrlQXOTTK2lYj-osg-79">
          <mxGeometry width="50" height="50" relative="1" as="geometry">
            <mxPoint x="120" y="500" as="sourcePoint" />
            <mxPoint x="390" y="370" as="targetPoint" />
          </mxGeometry>
        </mxCell>
        <mxCell id="IjMWrlQXOTTK2lYj-osg-81" value="" style="endArrow=none;html=1;rounded=0;entryX=0;entryY=0.5;entryDx=0;entryDy=0;" edge="1" parent="1" source="IjMWrlQXOTTK2lYj-osg-1" target="IjMWrlQXOTTK2lYj-osg-56">
          <mxGeometry width="50" height="50" relative="1" as="geometry">
            <mxPoint x="360" y="610" as="sourcePoint" />
            <mxPoint x="410" y="560" as="targetPoint" />
          </mxGeometry>
        </mxCell>
      </root>
    </mxGraphModel>
  </diagram>
</mxfile>
